<svg width="22" height="18" viewBox="0 0 22 18" fill="none" xmlns="http://www.w3.org/2000/svg">
<path d="M12.5549 7.54502C12.2616 8.18688 11.8336 8.75813 11.3 9.22C12.6999 9.85388 13.8875 10.8775 14.721 12.1685C15.5545 13.4596 15.9985 14.9633 16 16.5C16 16.7652 15.8946 17.0196 15.7071 17.2071H0.292893C0.105357 17.0196 0 16.7652 0 16.5C0.00147185 14.9633 0.445495 13.4596 1.27898 12.1685C2.11247 10.8775 3.30014 9.85388 4.7 9.22C4.16642 8.75813 3.73845 8.18688 3.44513 7.54502C3.1518 6.90316 2.99999 6.20571 3 5.5C3 4.17392 3.52678 2.90215 4.46447 1.96447C5.40215 1.02678 6.67392 0.5 8 0.5C9.32608 0.5 10.5979 1.02678 11.5355 1.96447C12.4732 2.90215 13 4.17392 13 5.5C13 6.20571 12.8482 6.90316 12.5549 7.54502Z" fill="#3D6177"/>
<path d="M18.9438 6.25634C18.798 7.20905 18.38 8.09933 17.74 8.82C19.0413 9.63331 20.1131 10.7659 20.8535 12.1101C21.5938 13.4543 21.9782 14.9654 21.97 16.5C21.97 16.7652 21.8646 17.0196 21.6771 17.2071C21.4896 17.3946 21.2352 17.5 20.97 17.5C20.7048 17.5 20.4504 17.3946 20.2629 17.2071C20.0754 17.0196 19.97 16.7652 19.97 16.5C19.9805 15.1659 19.6096 13.8566 18.901 12.7263C18.1923 11.596 17.1754 10.6917 15.97 10.12L15.84 10.05L15.45 9.79C15.3081 9.69665 15.1924 9.56872 15.1137 9.41826C15.0349 9.2678 14.9958 9.09976 15 8.93C15.0045 8.7589 15.0528 8.59182 15.1404 8.44474C15.2279 8.29766 15.3517 8.17552 15.5 8.09C15.9549 7.82738 16.3328 7.44994 16.5961 6.99542C16.8593 6.5409 16.9986 6.02524 17 5.5C17 4.70435 16.6839 3.94129 16.1213 3.37868C15.5587 2.81607 14.7956 2.5 14 2.5C13.7348 2.5 13.4804 2.39464 13.2929 2.20711C13.1054 2.01957 13 1.76522 13 1.5C13 1.23478 13.1054 0.98043 13.2929 0.792893C13.4804 0.605357 13.7348 0.5 14 0.5C14.9638 0.499742 15.9071 0.77805 16.7165 1.30142C17.5258 1.8248 18.1666 2.57093 18.5618 3.45C18.9569 4.32907 19.0896 5.30362 18.9438 6.25634Z" fill="#3D6177"/>
</svg>
